<svg id="Layer_1" data-name="Layer 1" xmlns="http://www.w3.org/2000/svg" viewBox="0 0 383.36 283.68"><path d="M58,149.34c1.84-7.65,4.11-15.09,9-21.48,9.37-12.27,21.65-19.16,37.13-19.21,54.28-.16,108.55-.07,162.83-.05,4.54,0,6.84,2,6.8,5.65s-2.49,5.55-7.71,5.55q-77.67,0-155.34,0c-10,0-19.42,1-27.54,7.42-8.6,6.82-13.66,15.72-13.8,26.67-.3,24.95-.11,49.91-.11,74.87a8,8,0,0,0,.24,1.28H115v-4.12c0-16.1,0-32.2,0-48.3,0-19,13.05-32,32-32q101.25,0,202.5,0h5.24c-1.29-2.38-2.31-4.39-3.46-6.33-7.47-12.62-18.5-19.2-33.21-19.38-7.24-.09-14.48.06-21.71-.08-1.67,0-3.9-.26-4.84-1.31-1.24-1.38-2.36-3.94-1.88-5.49.51-1.71,2.9-4,4.46-4,11.82,0,23.79-.49,35.42,1.2,12.28,1.78,22.47,8.91,28.88,19.62q20.55,34.32,39.83,69.39c6.79,12.4,9.4,26.21,9.52,40.39,0,1.38,0,2.75.09,4.12a6.94,6.94,0,0,0,.4,1.25c5.89,0,12-.1,18,0,7.49.15,13.55,4.43,14.5,11.53a74.6,74.6,0,0,1,0,19.35C439.85,282.6,434,287,427,287.26c-6.21.21-12.44,0-19,0v14.62a45,45,0,0,1,20.7,11.76,43,43,0,0,1,12.45,26.95c1,10.46-3.9,16.38-14.79,17.89-2.07,11.13-7.54,20.33-17.07,26.87a38.14,38.14,0,0,1-22.91,6.82c-19.17-.42-31.21-10.87-38.88-33.78H162.47c-5.78,21.56-19.86,33.65-39.2,33.8s-33.6-11.86-39.71-33.77c-1.86-.14-3.85-.11-5.77-.44-9.28-1.62-15.54-6.88-18.72-15.78-.33-.91-.71-1.8-1.07-2.71V286.37c1.6-1.05,3.09-2.63,4.84-3,3.8-.86,6.37,2,6.38,6.65,0,15,0,29.94,0,44.91,0,8.16,6.72,13.42,14.44,11.58,4.72-23.56,23.71-33.39,38.88-33.5,19.47-.14,33.9,11.92,39.92,33.86.79.06,1.65.17,2.51.17l194.22,0a15.09,15.09,0,0,0,11.1-4.56q9.26-9.25,18.51-18.53c4.17-4.21,7-9.27,7.39-15.16.43-7.07.1-14.19.1-21.24-12.52-4.33-18.48-11.38-18.36-21.6s6.17-17.26,17.91-21.1v-14.6c-9.53,0-18.5,0-27.48,0-15.55,0-25.27-9.66-25.31-25.14,0-14.73,0-29.45,0-44.17V157h-12v5q0,72.79,0,145.6c0,13.52-8.19,21.88-21.55,21.9q-53.13.06-106.28,0c-13,0-21.19-8.23-21.31-21.29-.07-7.12.06-14.23,0-21.34-.36-26.21-19.81-45.42-46-45.45q-31.43,0-62.87,0c-1.2,0-2.4.11-3.84.18,0,6.87-.07,13.47,0,20.06,0,3.23-.46,6.14-3.89,7.28s-5.69-.76-7.37-3.57Zm68.19,80.32c7.79.59,15.13.39,22.13,1.83,26.73,5.47,44.48,27.69,44.84,55.42.09,7.36-.06,14.72.06,22.07.09,5.14,2.62,8.6,7.19,9,5.28.45,10.64.11,16.35.11V236.82c0-8.21,3.42-14.55,10.8-18.2,2.52-1.25,3-2.68,3-5.14-.08-17.59,0-35.17-.05-52.75,0-1.21-.13-2.41-.22-4h-3.9q-39.66,0-79.3,0c-12.94,0-20.86,8-20.88,21.05,0,11.85,0,23.7,0,35.54Zm166.08,88.66h15.89c8.75,0,11.72-2.95,11.72-11.63V157H242.1a8.66,8.66,0,0,0-.32,1.58c0,18.83-.07,37.66.07,56.49,0,1.07,1.26,2.56,2.32,3.11,7.48,3.88,11.24,10,11.38,18.34.08,4.74,0,9.48,0,14.22V270h16.06c13.28,0,20.63,7.35,20.65,20.58C292.28,299.66,292.27,308.74,292.27,318.32Zm67.25,39.95c1.85,13.27,15,23.4,29,22.67,13.11-.68,25.42-11.35,25.9-22.69-5.1,0-10.2,0-15.3,0-4.6,0-7.24-2.16-7.16-5.74s2.61-5.47,7-5.48c9,0,17.95,0,26.92,0,3,0,4.24-1.26,4.22-4.29C430,329.8,420,317,406.85,313.54c-1.94,9.75-8.08,16.84-15.07,23.41-3.27,3.08-6.48,6.22-9.51,9.53C376.1,353.21,369.19,358.41,359.52,358.27ZM123.1,381a28.38,28.38,0,1,0-28.45-28.11A28.5,28.5,0,0,0,123.1,381ZM354.46,157.16c0,17.23-.16,34.4.1,51.56.08,5,4.88,9.82,10.05,10,9.53.39,19.09.11,29.28.11-1.65-4.49-2.68-8.79-4.72-12.54-8.17-15-16.82-29.64-24.91-44.64C362,157.49,359.41,155.79,354.46,157.16Zm-110.13,161V256.06c0-6.62.12-13.23,0-19.84-.15-5.78-4.66-9.38-10-8.25-3.95.83-6.29,4.24-6.29,9.37q0,38.93,0,77.84c0,.95.17,1.89.28,3Zm11.45,0h25.15c0-10.41.19-20.61-.1-30.79-.1-3.45-2.75-5.77-6.23-5.92-6.19-.28-12.4-.08-18.82-.08Zm152.83-61.83c-3.95,0-7.44-.26-10.88.07a9.54,9.54,0,0,0-8.43,9.06c-.36,4.57,2.58,9.36,7.05,10.18,3.93.72,8,.47,12.26.66Zm11.62,19.87h4c5,0,5.84-.83,5.87-5.85,0-2.73,0-5.47,0-8.2,0-5.23-.81-6-6.1-6-1.2,0-2.4.14-3.76.23Z" transform="translate(-58 -108.56)"/><path d="M139.8,352.8a16.78,16.78,0,0,1-17.06,16.68,16.85,16.85,0,0,1,.36-33.69A16.71,16.71,0,0,1,139.8,352.8Zm-11.26,0A5.53,5.53,0,0,0,123,347a5.6,5.6,0,1,0,.06,11.19A5.55,5.55,0,0,0,128.54,352.79Z" transform="translate(-58 -108.56)"/></svg>