<svg id="Layer_1" data-name="Layer 1" xmlns="http://www.w3.org/2000/svg" viewBox="0 0 383.15 194.84"><path d="M58,179.26a10.29,10.29,0,0,0,.71-1.64C62.36,162.51,74.2,153,89.76,153q56.13-.08,112.27,0h136.6c37.24,0,66.67,20.9,79,56.18.76,2.17,1.76,3.2,4,2.79,8.3-1.54,12.8,2.3,15,10.08,1,3.45,2.81,6.64,4.09,10s0,6.72-3.12,8.12a6,6,0,0,1-8.1-3.23c-1.66-3.48-3-7.13-4.65-10.6-.51-1.05-1.79-1.72-3.14-3v11.76q0,33.67,0,67.35c0,11.78-6.53,18.24-18.34,18.25-8.6,0-17.21.07-25.82-.05-2.26,0-3.13.64-3.78,2.9a33,33,0,0,1-31.88,24.18c-15.06,0-27.78-9.54-32.15-24.35-.53-1.8-1-2.73-3.15-2.73q-58.76.13-117.5.12a4.4,4.4,0,0,0-.71.19c-2.38,9.65-7.64,17.51-16.6,22.6a33.23,33.23,0,0,1-19.84,4C138,346.41,127,336.47,122.6,320.74h-3.79q-14,0-28.07,0c-16.56,0-28.19-9.17-32.1-25.21a13.29,13.29,0,0,0-.64-1.73ZM409.07,281.42c-6.08-.91-11.83-1.91-17.62-2.59A15.62,15.62,0,0,1,381.34,274c-5.78-6-12.35-11.34-17.76-17.66-6.72-7.86-14.24-12.32-24.85-10.11-1.9.39-4-.1-6-.1q-65.28,0-130.55,0c-2.12,0-4.24.15-6.36.15q-61-.07-121.94-.22c-2.85,0-3.58.88-3.56,3.62.13,12.85,0,25.69.08,38.54.06,12.44,7.51,20,20,20.22,9.72.17,19.45,0,29.18.08,2.21,0,3.16-.61,3.85-2.89,4.41-14.67,17.05-24.23,31.82-24.34s27.69,9.56,32.15,24.38c.62,2.07,1.5,2.76,3.6,2.75q57.44-.08,114.86,0c2.24,0,3.2-.66,3.83-2.94a32,32,0,0,1,14.23-19A33.37,33.37,0,0,1,373.66,305c.4,1.26,1.72,3.16,2.64,3.18,9.72.22,19.45.23,29.17,0,1.23,0,3.4-1.95,3.44-3.05C409.21,297.28,409.07,289.45,409.07,281.42Zm-23.69-99.21c-1.41-1.24-2.26-2.07-3.19-2.78-12.85-9.86-27.48-14.26-43.57-14.26q-123.63,0-247.26,0a32.55,32.55,0,0,0-6.68.66c-7.88,1.73-14.27,9.49-13.58,16.35Zm23.73,86.61c0-12.61.11-24.7,0-36.78a66.92,66.92,0,0,0-10.2-34.32,5.11,5.11,0,0,0-5.05-2.86c-15.08.13-30.17.06-45.26.08-1.08,0-2.15.14-3.3.22v38.65a51.78,51.78,0,0,0,5.73,0c4.86-.58,8.47,1.15,11.9,4.68,8.44,8.66,17.22,17,25.94,25.37a9.38,9.38,0,0,0,4.32,2.61C398.29,267.43,403.49,268,409.11,268.82ZM261.34,195.14H202.78v38.37h58.56Zm71.26,0H274v38.37H332.6Zm-142.71,0H131.57v38.5h58.32Zm-71.22.06h-48V233.5h48Zm223,98.5a20.91,20.91,0,1,0,20.95,20.84A20.88,20.88,0,0,0,341.68,293.71Zm-186.34,0a20.81,20.81,0,0,0-20.79,21,20.87,20.87,0,1,0,41.73-.22A20.67,20.67,0,0,0,155.34,293.71Z" transform="translate(-58 -152.96)"/></svg>