<svg id="Layer_1" data-name="Layer 1" xmlns="http://www.w3.org/2000/svg" viewBox="0 0 383.29 218.78"><path d="M58,272.83c1.91-6.54,3.13-13.38,5.85-19.56,6.81-15.4,18.47-26,34.14-32.29a10.66,10.66,0,0,0,4.44-3.63c9.41-13.5,18.32-27.36,28.09-40.59,17-23,40.22-34.91,68.8-35.57q29.93-.67,59.88,0c28.74.59,52,12.52,69.11,35.69,9.47,12.83,18.2,26.22,27.14,39.43a5.47,5.47,0,0,0,5.17,2.7c10.94.07,21.93-.82,32.74,2.07a64.56,64.56,0,0,1,47.86,61.18c.12,10,.06,20,0,29.94,0,5.64-2.91,8.5-8.56,8.53-8.86.06-17.71,0-26.57.06a5.35,5.35,0,0,0-1.06.3c-.15,12.39-4.71,22.92-14.72,30.73a35.82,35.82,0,0,1-24,7.79,36.63,36.63,0,0,1-26.16-12c-7-7.44-10-16.47-10.12-26.91h-4.29c-13.47,0-26.94,0-40.41,0-5.51,0-8.79-2.87-8.78-7.51s3.3-7.44,8.84-7.45c15,0,29.93-.06,44.9.05,2.49,0,3.93-.61,5.3-2.87a37.16,37.16,0,0,1,63.94.14,4.92,4.92,0,0,0,5,2.72c7.09-.13,14.18,0,21.59,0,.17-18.73,2.56-37.53-10.71-53.34-10-11.87-22.58-18.17-38.07-18.49-7.11-.15-14.23-.22-21.33,0-4.6.16-7.7-1.47-10.27-5.32-8.93-13.38-18.09-26.6-27.2-39.85q-22.44-32.64-62.08-32.74c-18.21,0-36.42-.07-54.64,0-25.94.13-46.41,10.87-61.24,32.16-9.33,13.41-18.36,27-27.8,40.35a15.72,15.72,0,0,1-7.12,5.43C85.85,241,73.13,258.43,73,279.48c0,6-.06,12,0,18,.06,5.39,3,8.25,8.4,8.31,5.11.06,10.23.18,15.33-.1a5.65,5.65,0,0,0,3.92-2.35c15.17-24.64,49.49-24.73,64.5,0a4.71,4.71,0,0,0,4.76,2.54c15.34-.08,30.68,0,46-.05,3.3,0,6.26,1.18,7.19,4.28a11.58,11.58,0,0,1-.56,7.34c-1.24,2.86-4.3,3.39-7.36,3.38-13.47-.05-26.94,0-40.41,0h-4.29c-.05,12.62-4.57,22.91-14.17,30.69a36.19,36.19,0,0,1-25.4,8.15c-16.28-.85-34.77-13.4-35.55-38.84-3.26,0-6.58-.21-9.86,0C72,321.75,61.94,316.21,58,302Zm97.39,49.34a22.44,22.44,0,0,0-44.87-.07,22.63,22.63,0,0,0,22.64,22.58A22.4,22.4,0,0,0,155.39,322.17Zm212-22.38A22.45,22.45,0,1,0,389.92,322,22.43,22.43,0,0,0,367.37,299.79Z" transform="translate(-58 -140.86)"/><path d="M277.47,233.91q-18.87,0-37.76,0c-6.42,0-9.13-2.63-9.16-9.05q-.08-22.44,0-44.87c0-6.25,2.75-9.09,8.88-8.9,10.43.31,21,0,31.25,1.61,13.68,2.16,24.67,9.86,32.88,21,6.71,9.12,12.91,18.62,19.34,28,1.76,2.55,2.27,5.25.81,8.1s-4.09,4.16-7.36,4.15Q296.92,233.88,277.47,233.91Zm24.74-15.16c-11-24.52-34.51-37.85-56.48-32.18v32.18Z" transform="translate(-58 -140.86)"/><path d="M174.86,233.91c-10.6,0-21.2,0-31.8,0-3.36,0-6.21-.81-7.9-3.9-1.76-3.24-.88-6.17,1.13-9.06,5.69-8.19,11.2-16.5,16.91-24.67,13.48-19.29,32.46-26.65,55.39-25.2,4.29.27,6.85,3.33,6.94,8.2.12,6.48,0,13,0,19.46,0,8.47,0,17,0,25.43,0,7.2-2.54,9.71-9.65,9.71Zm25.53-47.86c-1.09,0-1.71,0-2.32,0s-1.5.1-2.24.18c-20.22,2.22-30.19,16.76-39.43,32.46h44Z" transform="translate(-58 -140.86)"/><path d="M242.47,263.9c-1.74,0-3.49.14-5.21,0a7.12,7.12,0,0,1-6.57-6.49c-.39-3.77,1.57-7.32,5.29-7.82a49.38,49.38,0,0,1,12.91,0c3.72.48,5.68,4,5.32,7.8a7.09,7.09,0,0,1-6.53,6.51C246,264,244.21,263.9,242.47,263.9Z" transform="translate(-58 -140.86)"/><path d="M250.28,320.71a7.46,7.46,0,0,1-.21-14.92,7.46,7.46,0,1,1,.21,14.92Z" transform="translate(-58 -140.86)"/><path d="M140.4,322.05a7.41,7.41,0,0,1-7.11,7.64,7.46,7.46,0,1,1-.37-14.91A7.39,7.39,0,0,1,140.4,322.05Z" transform="translate(-58 -140.86)"/><path d="M367.69,329.69a7.46,7.46,0,1,1,7.22-7.54A7.42,7.42,0,0,1,367.69,329.69Z" transform="translate(-58 -140.86)"/></svg>