<svg id="Layer_1" data-name="Layer 1" xmlns="http://www.w3.org/2000/svg" viewBox="0 0 408.49 324.89"><path d="M45,343.62c2.72-8,4.38-16.56,8.38-23.84,9.6-17.46,24.89-27.56,44.69-30.59,1.05-.17,2.07-.43,3.16-.66,0-8.69.67-17.35-.18-25.85-.88-8.85-8.43-14.66-17.56-14.84-7-.14-14.09,0-21.55,0-1-12.74,2.16-23.78,11.6-32.53,5.82-5.39,12.69-8.95,20.69-9.22,10.07-.34,20.15-.08,30.51-.08v11.51h-3.66c-7.58,0-15.17-.11-22.75,0-11.65.22-21,7.44-23.54,18.34,3.09,0,6.1-.11,9.1,0,11.53.5,20.2,5.71,26.08,15.72a5.43,5.43,0,0,0,3.79,2.48c35.92.13,71.85.1,107.77.09a12.31,12.31,0,0,0,1.49-.23c.9-3.89,1.82-7.86,2.87-12.42H203.34V229.73h55.32v11.58H238.29c-1.15,4.94-2.34,9.56-3.21,14.24a5.23,5.23,0,0,0,1.12,3.56q30.45,41.25,61.06,82.38a4.79,4.79,0,0,0,3.13,1.92c9.69.15,19.39.09,28.35.09,3.3-9.28,6.42-18.06,9.62-27.09H292.23V276.57l25.88-4c9.85-1.52,19.69-3.17,29.57-4.47,2.7-.36,3.8-1.56,4.66-3.93,4.5-12.35,9.4-24.56,13.65-37,3.81-11.17,9.32-20.58,21.48-24.78-.82-2-1.5-3.63-2.22-5.28-8.41-19.23-16.8-38.47-25.31-57.65a6.44,6.44,0,0,0-3.26-2.9c-22.57-9.15-36.74-26-44.7-48.56-.08-.21.06-.49.13-1H453.49v54.73a46,46,0,0,0-6.83.1c-1.1.16-2.77,1.25-2.94,2.16-3.47,18.67-6.77,37.37-10.17,56.51h19.92V316.35H443.06c12.17,21.29,13.68,42.55,2,63.81-8.68,15.85-22.21,26-39.83,30.1-35.26,8.29-71.13-15.4-75.72-54.8H325c-39.91,0-79.83,0-119.74.09-3.36,0-5.2-1.1-7-3.82-18.5-27.61-37.17-55.11-55.7-82.71a5.64,5.64,0,0,0-5.45-2.93c-7.68.19-15.37.07-23.48.07,0,7.1-.1,13.85.12,20.58,0,.88,1.6,2.27,2.63,2.46,22,4.07,37.89,16.19,47,36.63,17.16,38.47-10.16,83.24-52.22,85.84-32.8,2-60.33-20.16-65.43-52.69a8.45,8.45,0,0,0-.71-1.79ZM101.69,301c-26.17,1.75-46.31,25.91-44.62,52.87,1.65,26.19,25.61,47.71,51.34,46.09,28.51-1.8,49.7-25,48.15-52.19s-25.26-45.91-43.1-46.21v23.82H101.69Zm240.57,54.48c-.9,22.13,23.29,44.11,48.58,44.56,27.07.48,50-22,50.18-49.35a49.87,49.87,0,0,0-50.43-50.23c-27.12.16-47.4,23.66-48.14,43.2H373v11.82Zm99.46-142.75c-14.59,0-28.8,0-43,0-10.11,0-15.87,4-19.42,13.38-6,16-12.11,32-18,48.16-1.1,3.05-2.59,4.32-5.83,4.77-16.19,2.26-32.34,4.77-48.49,7.34-1.12.18-2.89,1.44-2.93,2.27-.27,5.13-.14,10.29-.14,15.8h4.42c12.5,0,25,.11,37.52-.11a11.86,11.86,0,0,0,6.75-2.36c21.92-17.65,54.12-18.14,76.13-.54,4.23,3.38,8.27,3.16,13,2.68ZM330,98.91c12,18.61,28.23,29.42,49.55,30.48,20.05,1,40.17.33,60.26.37a9.12,9.12,0,0,0,1.74-.32V98.91ZM231.09,272.37c-5.56,24.1-10.94,47.37-16.36,70.9h68.89ZM155,266.28l48.59,71.91c5.66-24.52,11.09-48.08,16.58-71.91Zm249.89-65.84V141.7H374.08c.55,1.3,1,2.51,1.56,3.71,7.51,17.15,15.1,34.27,22.47,51.48C399.49,200.11,401.2,201.58,404.92,200.44ZM417.35,142v58.47c3.08.91,4.15-.13,4.64-3.1,1.84-11.25,4-22.45,6-33.68,1.29-7.14,2.5-14.29,3.79-21.69Z" transform="translate(-45 -87.02)"/><path d="M80.91,352.15l-11.77,1c-.82-12.43,3.47-22.52,12.55-31.25,2.67,3,5.19,5.8,8,8.88A27.45,27.45,0,0,0,80.91,352.15Z" transform="translate(-45 -87.02)"/><path d="M144.38,350H132.73c-.6-7.8-3.41-14.5-9.68-19.76l7.36-9C138.86,327,144.63,338.79,144.38,350Z" transform="translate(-45 -87.02)"/><path d="M113.42,349.16H101.87V337.81h11.55Z" transform="translate(-45 -87.02)"/><path d="M83.18,361.6,89,369.33c-2.42,2.7-4.95,5.51-8,8.88-2.88-3.72-5.57-7.22-8.68-11.25Z" transform="translate(-45 -87.02)"/><path d="M106.5,388.28,93,385.85c1.55-4.06,2.89-7.54,4.3-11.21l9.18,1.69Z" transform="translate(-45 -87.02)"/><path d="M428.91,350H417.37c-1.78-15.27-10.25-23.94-25.79-25.86V312.84C410.63,311.31,428.34,328.81,428.91,350Z" transform="translate(-45 -87.02)"/><path d="M391.08,388c-13.85-.51-24.18-6.32-32-17.85l10-6.26c5.34,7.79,12.64,11.79,21.93,12.37Z" transform="translate(-45 -87.02)"/><path d="M396.59,355.26H385.45V343.83h11.14Z" transform="translate(-45 -87.02)"/><path d="M396.88,236.81V224.89h32.66v29.26H418.1V236.81Z" transform="translate(-45 -87.02)"/><path d="M418.21,266.53h11.44v10.91H418.21Z" transform="translate(-45 -87.02)"/><path d="M429.36,108.54v11.37H402V108.54Z" transform="translate(-45 -87.02)"/></svg>