<svg id="Layer_1" data-name="Layer 1" xmlns="http://www.w3.org/2000/svg" viewBox="0 0 273.69 472.7"><path d="M229,13c3,.75,6,1.39,8.88,2.28,24.32,7.41,39.25,31.62,35.3,57.17-3.75,24.27-25.81,42.75-50.67,42.46a50.95,50.95,0,0,1-8.94-101A18.32,18.32,0,0,0,216.1,13Zm29.86,50.84a36,36,0,1,0-35.95,36.1A36,36,0,0,0,258.88,63.84Z" transform="translate(-112.5 -13)"/><path d="M241.32,388.76c-10.86,14.34-22.28,29.4-33.7,44.45-9.77,12.86-19.3,25.92-29.38,38.52a36.75,36.75,0,0,1-57.19.6c-11.08-13.17-11.49-31.81-.7-46.48q31.44-42.74,63.12-85.3c13.82-18.66,27.7-37.28,41.36-56.06a10.77,10.77,0,0,0,1.72-7.06c-3-23-6.33-46-9.57-69-.25-1.81-.6-3.6-1.12-6.67-2.73,6.27-4.72,11.56-7.33,16.53a18.13,18.13,0,0,1-5.83,6.74c-12.79,8.24-25.82,16.11-38.71,24.19-6.51,4.08-9.61,10.55-8.43,17.09,2.11,11.71,14.32,17.64,24.74,11.77,6.68-3.77,13.08-8.06,19.64-12.06,5-3.07,9.22-2.55,11.73,1.36s1.1,8.2-3.67,11.21c-6.25,3.94-12.5,7.86-18.83,11.64-15.79,9.42-34.74,5.13-44-9.89-9.4-15.22-4.59-34.09,11.27-44,11.73-7.34,23.55-14.53,35.2-22a13.31,13.31,0,0,0,4.66-5.32c3.81-8.21,7.12-16.66,10.92-24.89a72.4,72.4,0,0,0,6.13-21.49c3.55-27.71,30.41-40.08,54.06-25.16a50.28,50.28,0,0,1,7.61,6q26.81,25.41,53.48,50.92a57.88,57.88,0,0,1,14.88,23c7.91,22.29,15.81,44.58,23.52,66.94,7,20.3-2.86,41.24-22.38,48s-40.24-3.36-47.36-23.68c-6.86-19.56-13.37-39.25-20.18-58.83a16.5,16.5,0,0,0-3.87-6.05c-7-6.93-14.17-13.67-21.29-20.47-5-4.76-5.93-9.14-2.66-12.69,3.4-3.7,7.67-3.14,12.75,1.7,7.46,7.11,15.09,14.06,22.26,21.46A29.51,29.51,0,0,1,290.72,244c7.08,20,13.67,40.11,20.6,60.14,3.54,10.25,13,16.3,23.18,15.27a21.75,21.75,0,0,0,19.55-19.09,24.92,24.92,0,0,0-1.27-10.81c-7.63-22.38-15.19-44.8-23.61-66.9a52.62,52.62,0,0,0-11.76-17.82c-17.2-17.18-35-33.77-52.7-50.4a33.47,33.47,0,0,0-9.92-6.52c-12.88-5.29-25,1.62-26.45,15.86-.88,8.58,0,17.48,1.15,26.09,3.94,30,8.26,60,12.63,90a13.39,13.39,0,0,1-2.88,10.65q-53.09,71.49-106.07,143.06c-4.44,6-7,12.35-5.24,19.79,2.08,8.84,7.59,14.66,16.51,16.77,9.36,2.21,17.05-.94,22.81-8.41,10.9-14.12,21.6-28.4,32.38-42.62l64.12-84.55c.38-.49.73-1,1.13-1.46,3.18-3.67,7.15-4.36,10.58-1.83s4.1,7,1.11,11c-6,8.17-12.12,16.3-18.42,24.25a11.79,11.79,0,0,0-2.6,9.62A31.14,31.14,0,0,0,265,395.43c22.61,22.43,45,45.08,67.43,67.69,6.78,6.83,14.68,9.45,23.95,6.34,15.27-5.13,19.83-24.1,8.58-36.12-7.46-8-15.33-15.57-23-23.32-13-13.09-26.17-26-39-39.37-2.34-2.44-3.7-6.15-4.68-9.51a66.63,66.63,0,0,1-1.81-11.84c-.49-4.87,1.92-8.18,6.09-8.81,4.47-.68,8.4,1.92,8.51,6.87.21,9.54,5,16,11.58,22.34,17.68,17.12,34.92,34.7,52.13,52.3,14.34,14.67,15.15,36.29,2.27,50.93-14.45,16.41-38.59,17.14-54.51,1.36-18.36-18.2-36.48-36.63-54.7-55-4.13-4.15-8.49-8.08-12.29-12.51C250.64,401.07,246.16,394.93,241.32,388.76Z" transform="translate(-112.5 -13)"/></svg>